# xmcd CD database file
# Copyright (C) 1993-1998 Ti Kan
#
# Track frame offsets:
# 150
# 13172
# 36320
# 48262
# 64407
# 81997
# 97792
# 127257
# 142745
# 157565
# 175585
# 188655
# 205172
# 224285
# 247652
# 260250
# 277542
# 293790
#
# Disc length: 4167 seconds
# Revision: 0
# Processed by: cddbd v1.4b41PL1 Copyright (c) Steve Scherf et al.
# Submitted via: CDSpectrumPro v3.3.331
#
DISCID=eb104512
DTITLE=Various Artist - De basta balladerna - 70-talet
DYEAR=1900
DGENRE=
TTITLE0=Dr. Hook - A Little Bit More
TTITLE1=Danny Mirror - I Remember Elvis Presley
TTITLE2=Crystal Gayle - Don't It Make My Brown Eyes Blue
TTITLE3=Shirley Bassey - Something
TTITLE4=Bjorn Skifs - A Song for You
TTITLE5=Robert John - Sad Eyes
TTITLE6=Al Stewart - Year of the Cat
TTITLE7=The Shadows - Cavatina (Theme from The Deer Hunter)
TTITLE8=Helen Reddy - I Don't know how to love him
TTITLE9=Don McLean - Vincent
TTITLE10=Michael Johnson - Bluer than Blue
TTITLE11=Harpo - Smile
TTITLE12=Magnus Lindberg - Ljustero
TTITLE13=Peter Lundblad - Lika bla som dina ogon
TTITLE14=Maxine Nightingale - Lead Me On
TTITLE15=KC and the Sunshine Band - Please don't go
TTITLE16=Nitty Gritty Dirt Band - Mr. Bojangels
TTITLE17=Ann-Kristin Hedmark - Du har en van
EXTD=
EXTT0=
EXTT1=
EXTT2=
EXTT3=
EXTT4=
EXTT5=
EXTT6=
EXTT7=
EXTT8=
EXTT9=
EXTT10=
EXTT11=
EXTT12=
EXTT13=
EXTT14=
EXTT15=
EXTT16=
EXTT17=
PLAYORDER=
